<?xml version="1.0" encoding="UTF-8"?>
<svg xmlns="http://www.w3.org/2000/svg" xmlns:xlink="http://www.w3.org/1999/xlink" width="40px" height="40px" viewBox="0 0 40 40" version="1.1">
<g id="surface1">
<path style=" stroke:none;fill-rule:nonzero;fill:rgb(88.235294%,44.313725%,2.745098%);fill-opacity:1;" d="M 22.851562 31.6875 L 22.90625 29.726562 C 22.914062 29.429688 22.992188 22.609375 16.171875 20.882812 C 15.765625 20.78125 15.484375 20.414062 15.476562 20 C 15.476562 19.578125 15.75 19.210938 16.15625 19.101562 C 22.921875 17.273438 22.898438 10.328125 22.898438 10.257812 L 22.875 8.515625 L 24.164062 9.6875 C 24.34375 9.851562 28.625 13.804688 28.835938 19.625 C 28.96875 23.335938 27.40625 26.914062 24.203125 30.273438 Z M 18.21875 19.96875 C 22.523438 21.78125 23.84375 25.640625 24.242188 27.9375 C 26.390625 25.273438 27.429688 22.507812 27.328125 19.679688 C 27.210938 16.25 25.429688 13.476562 24.226562 11.984375 C 23.8125 14.25 22.484375 18.09375 18.21875 19.96875 Z M 6.875 20.75 L 5.539062 20.75 C 5.125 20.75 4.78125 20.414062 4.78125 19.992188 C 4.78125 19.578125 5.117188 19.234375 5.539062 19.234375 L 6.875 19.234375 C 7.289062 19.234375 7.632812 19.570312 7.632812 19.992188 C 7.632812 20.40625 7.296875 20.75 6.875 20.75 Z M 3.117188 20.75 L 1.773438 20.75 C 1.359375 20.75 1.015625 20.414062 1.015625 19.992188 C 1.015625 19.578125 1.351562 19.234375 1.773438 19.234375 L 3.117188 19.234375 C 3.53125 19.234375 3.875 19.570312 3.875 19.992188 C 3.867188 20.40625 3.53125 20.75 3.117188 20.75 Z M 10.492188 20.75 L 8.890625 20.75 C 8.476562 20.75 8.132812 20.414062 8.132812 19.992188 C 8.132812 19.578125 8.46875 19.234375 8.890625 19.234375 L 10.492188 19.234375 C 10.90625 19.234375 11.25 19.570312 11.25 19.992188 C 11.242188 20.40625 10.90625 20.75 10.492188 20.75 Z M 13.835938 20.75 L 12.492188 20.75 C 12.078125 20.75 11.734375 20.414062 11.734375 19.992188 C 11.734375 19.578125 12.070312 19.234375 12.492188 19.234375 L 13.835938 19.234375 C 14.25 19.234375 14.59375 19.570312 14.59375 19.992188 C 14.59375 20.40625 14.257812 20.75 13.835938 20.75 Z M 19.476562 11.5 C 18.34375 11.5 17.429688 10.585938 17.429688 9.453125 C 17.429688 10.585938 16.515625 11.5 15.382812 11.5 C 16.515625 11.5 17.429688 12.414062 17.429688 13.546875 C 17.429688 12.414062 18.34375 11.5 19.476562 11.5 Z M 34.46875 22.953125 C 33.25 22.953125 32.265625 21.96875 32.265625 20.75 C 32.265625 21.96875 31.28125 22.953125 30.0625 22.953125 C 31.28125 22.953125 32.265625 23.9375 32.265625 25.15625 C 32.265625 23.9375 33.25 22.953125 34.46875 22.953125 Z M 17.429688 27.429688 C 15.867188 27.429688 14.59375 26.164062 14.59375 24.59375 C 14.59375 26.15625 13.328125 27.429688 11.757812 27.429688 C 13.320312 27.429688 14.59375 28.695312 14.59375 30.265625 C 14.601562 28.695312 15.867188 27.429688 17.429688 27.429688 Z M 17.429688 27.429688 "/>
<path style=" stroke:none;fill-rule:nonzero;fill:rgb(88.235294%,44.313725%,2.745098%);fill-opacity:1;" d="M 21.945312 35.835938 C 14.1875 35.835938 7.625 30.304688 6.328125 22.664062 C 6.25 22.210938 6.554688 21.773438 7.015625 21.695312 C 7.476562 21.625 7.90625 21.921875 7.984375 22.382812 C 9.148438 29.210938 15.015625 34.15625 21.945312 34.15625 L 22 34.15625 C 25.78125 34.140625 29.335938 32.65625 32 29.96875 C 34.664062 27.28125 36.125 23.71875 36.109375 19.9375 C 36.09375 16.15625 34.609375 12.601562 31.921875 9.9375 C 29.25 7.28125 25.710938 5.828125 21.945312 5.828125 L 21.890625 5.828125 C 14.96875 5.851562 9.109375 10.820312 7.96875 17.640625 C 7.890625 18.101562 7.460938 18.40625 7 18.328125 C 6.539062 18.25 6.234375 17.820312 6.3125 17.359375 C 7.601562 9.734375 14.148438 4.179688 21.890625 4.148438 L 21.953125 4.148438 C 26.164062 4.148438 30.125 5.78125 33.117188 8.75 C 36.117188 11.734375 37.78125 15.703125 37.796875 19.9375 C 37.8125 24.171875 36.179688 28.15625 33.195312 31.15625 C 30.210938 34.15625 26.242188 35.820312 22.007812 35.835938 Z M 21.945312 35.835938 "/>
</g>
</svg>
