<?xml version="1.0" encoding="iso-8859-1"?>
<!-- Generator: Adobe Illustrator 16.0.0, SVG Export Plug-In . SVG Version: 6.00 Build 0)  -->
<!DOCTYPE svg PUBLIC "-//W3C//DTD SVG 1.1//EN" "http://www.w3.org/Graphics/SVG/1.1/DTD/svg11.dtd">
<svg version="1.1" id="Capa_1" xmlns="http://www.w3.org/2000/svg" xmlns:xlink="http://www.w3.org/1999/xlink" x="0px" y="0px"
	 width="106.048px" height="106.048px" viewBox="0 0 106.048 106.048" style="enable-background:new 0 0 106.048 106.048;"
	 xml:space="preserve">
<g>
	<path style="fill:#010002;" d="M84.838,0H21.209C9.543,0,0,9.543,0,21.209v63.629c0,11.666,9.543,21.21,21.209,21.21h63.628
		c11.667,0,21.21-9.544,21.21-21.21V21.209C106.048,9.543,96.505,0,84.838,0z M92.792,91.477H13.256V44.255l39.773-29.694
		l39.763,29.694V91.477z M53.029,62.21l34.729,26.88h-69.47L53.029,62.21z M42.025,35.75c-1.175,2.141-1.752,4.453-1.752,6.928
		c0,2.26,0.512,4.35,1.543,6.268c1.033,1.914,2.602,3.369,4.728,4.347c2.11,0.984,4.625,1.471,7.542,1.471
		c2.998,0,5.551-0.58,7.637-1.74c1.823-1.022,3.18-2.423,4.061-4.215h-2.812c-0.932,1.181-2.148,2.051-3.671,2.641
		c-1.522,0.588-3.335,0.881-5.432,0.881c-2.186,0-4.127-0.353-5.828-1.046c-1.696-0.705-3.011-1.812-3.961-3.346
		c-0.927-1.522-1.406-3.218-1.406-5.074c0-1.913,0.419-3.759,1.258-5.52c0.852-1.771,2.1-3.148,3.759-4.109
		c1.665-0.986,3.685-1.473,6.079-1.473c2.812,0,5.007,0.735,6.581,2.183c1.569,1.471,2.352,3.283,2.352,5.448
		c0,1.214-0.285,2.379-0.839,3.508c-0.555,1.119-1.279,2.032-2.181,2.695c-0.668,0.521-1.211,0.769-1.646,0.769
		c-0.135,0-0.259-0.054-0.357-0.165c-0.108-0.111-0.149-0.27-0.149-0.497c0-0.176,0.062-0.557,0.186-1.163l1.999-9.486h-3.49
		l-0.336,1.471c-0.751-1.204-1.9-1.805-3.475-1.805c-2.203,0-4.008,1.046-5.419,3.13c-1.165,1.707-1.743,3.594-1.743,5.672
		c0,1.665,0.487,3.012,1.447,4.029c0.963,1.004,2.172,1.512,3.643,1.512c1.356,0,2.561-0.508,3.599-1.512
		c0.119,0.5,0.373,0.87,0.74,1.131c0.373,0.259,0.922,0.381,1.657,0.381c2.724,0,4.939-1.149,6.68-3.436
		c1.388-1.825,2.082-3.855,2.082-6.098c0-1.882-0.467-3.627-1.367-5.217c-0.922-1.598-2.237-2.817-3.967-3.687
		c-1.729-0.857-3.702-1.292-5.924-1.292c-2.62,0-4.947,0.538-6.98,1.615C44.801,32.011,43.193,33.616,42.025,35.75z M54.649,43.082
		c-0.331,1.033-0.74,1.822-1.206,2.358c-0.326,0.373-0.663,0.652-0.997,0.828c-0.44,0.249-0.906,0.371-1.411,0.371
		c-0.673,0-1.229-0.269-1.69-0.795c-0.45-0.531-0.673-1.346-0.673-2.465c0-0.839,0.158-1.804,0.486-2.892
		c0.329-1.085,0.811-1.913,1.453-2.506c0.646-0.591,1.346-0.88,2.1-0.88c0.707,0,1.286,0.269,1.752,0.805
		c0.467,0.531,0.694,1.294,0.694,2.291C55.157,41.093,54.986,42.059,54.649,43.082z M45.404,64.871L16.06,87.582V45.191
		L45.404,64.871z M60.646,64.871l29.339-19.68v42.391L60.646,64.871z"/>
</g>
<g>
</g>
<g>
</g>
<g>
</g>
<g>
</g>
<g>
</g>
<g>
</g>
<g>
</g>
<g>
</g>
<g>
</g>
<g>
</g>
<g>
</g>
<g>
</g>
<g>
</g>
<g>
</g>
<g>
</g>
</svg>
